<svg xmlns="http://www.w3.org/2000/svg" viewBox="0 0 500 500" width="100" height="100">
  <!-- Background circle -->
  <circle cx="250" cy="250" r="240" fill="#f0f4ff" />
  
  <!-- Document base -->
  <rect x="120" y="100" width="260" height="300" rx="15" ry="15" fill="#4f46e5" />
  <rect x="140" y="120" width="220" height="260" rx="8" ry="8" fill="white" />
  
  <!-- Lines representing document entries -->
  <line x1="160" y1="155" x2="340" y2="155" stroke="#cbd5e1" stroke-width="6" />
  <line x1="160" y1="185" x2="340" y2="185" stroke="#cbd5e1" stroke-width="6" />
  <line x1="160" y1="215" x2="340" y2="215" stroke="#cbd5e1" stroke-width="6" />
  <line x1="160" y1="245" x2="340" y2="245" stroke="#cbd5e1" stroke-width="6" />
  <line x1="160" y1="275" x2="340" y2="275" stroke="#cbd5e1" stroke-width="6" />
  <line x1="160" y1="305" x2="340" y2="305" stroke="#cbd5e1" stroke-width="6" />
  <line x1="160" y1="335" x2="340" y2="335" stroke="#cbd5e1" stroke-width="6" />
  
  <!-- Checkmark symbol -->
  <path d="M210 350 L230 370 L290 310" fill="none" stroke="#4f46e5" stroke-width="12" stroke-linecap="round" stroke-linejoin="round" />
  
  <!-- Shopping cart icon representing purchases -->
  <circle cx="330" cy="370" r="30" fill="#f43f5e" />
  <path d="M315 360 H345 L340 375 H320 L315 360 Z" fill="white" />
  <path d="M323 360 L318 345 H310" fill="none" stroke="white" stroke-width="3" stroke-linecap="round" />
  <circle cx="325" cy="380" r="3" fill="white" />
  <circle cx="335" cy="380" r="3" fill="white" />
</svg> 